<svg width="96" height="96" viewBox="0 0 96 96" fill="none" xmlns="http://www.w3.org/2000/svg"><title>LTX</title><rect width="96" height="96" rx="16" fill="#18181B"/><path d="M10.1074 62.8181V39.0128C10.1074 38.5867 10.2705 38.1659 10.594 37.8897C10.857 37.6661 11.1516 37.553 11.4751 37.553H18.8158C19.2419 37.553 19.6627 37.703 19.9573 38.0107C20.1966 38.2632 20.315 38.5656 20.315 38.9207V55.6149C20.315 56.0515 20.6674 56.4039 21.104 56.4039H32.8081C33.2342 56.4039 33.6577 56.5539 33.9496 56.8616C34.1863 57.1141 34.3073 57.4166 34.3073 57.7716V63.4283C34.3073 63.9149 34.0969 64.3936 33.6945 64.6671C33.4578 64.8275 33.1895 64.9064 32.887 64.9064L12.2142 64.9196C11.049 64.9222 10.1074 63.9806 10.1074 62.8181Z" fill="#FFFFFF"/><path d="M48.0921 64.9176C45.7837 64.9124 43.7592 64.5599 42.0134 63.8551C40.2675 63.1502 38.9135 62.0008 37.9486 60.4017C36.9836 58.8052 36.5051 56.6906 36.5104 54.0604L36.5262 45.5914L32.3469 45.5835C31.9735 45.5835 31.6607 45.452 31.4056 45.1863C31.1506 44.9207 31.0244 44.5998 31.027 44.2132L31.0375 38.9003C31.0375 38.5137 31.1664 38.1902 31.4214 37.9272C31.6764 37.6642 31.9893 37.5327 32.3627 37.5353L36.5419 37.5432L36.5524 32.4463C36.5524 32.0597 36.6813 31.7362 36.9363 31.4732C37.1913 31.2102 37.5042 31.0813 37.8776 31.0813L45.2552 31.0944C45.6286 31.0944 45.9414 31.226 46.1965 31.4916C46.4515 31.7572 46.5777 32.0808 46.5751 32.4648L46.5646 37.5616L52.9772 37.5747C53.3506 37.5747 53.6635 37.7062 53.9185 37.9719C54.1735 38.2375 54.2998 38.561 54.2971 38.945L54.2866 44.2579C54.2866 44.6445 54.1578 44.968 53.9027 45.2311C53.6477 45.4941 53.3322 45.6256 52.9615 45.623L46.5488 45.6098L46.5356 53.1846C46.5356 54.2025 46.7355 54.9994 47.143 55.578C47.5505 56.1566 48.1921 56.4486 49.0755 56.4486L53.3506 56.4565C53.724 56.4565 54.0368 56.588 54.2919 56.8536C54.5469 57.1193 54.6731 57.4428 54.6705 57.8268L54.66 63.5605C54.66 63.9471 54.5311 64.2706 54.2761 64.5336C54.0211 64.7966 53.7055 64.9282 53.3348 64.9255L48.0948 64.915L48.0921 64.9176Z" fill="#FFFFFF"/><path d="M58.8995 64.9088C58.5607 64.9088 58.2823 64.7852 58.0643 64.5406C57.8437 64.296 57.736 64.0146 57.736 63.699C57.736 63.5938 57.7518 63.4701 57.7859 63.3307C57.82 63.1913 57.8883 63.0493 57.9881 62.9099L66.0935 51.1059C66.2143 50.9296 66.217 50.6956 66.0988 50.5167L58.7997 39.5569C58.7314 39.4517 58.6736 39.3281 58.6211 39.1887C58.5712 39.0493 58.545 38.9073 58.545 38.7679C58.545 38.4523 58.6631 38.1709 58.8995 37.9263C59.1359 37.6817 59.4064 37.558 59.7111 37.558H67.4619C67.9347 37.558 68.2893 37.6711 68.5257 37.9C68.762 38.1288 68.9301 38.3287 69.0326 38.5049L72.3945 43.5784C72.602 43.8914 73.0616 43.8914 73.2691 43.5784L76.631 38.5049C76.765 38.3287 76.9436 38.1288 77.1616 37.9C77.3796 37.6711 77.7263 37.558 78.199 37.558H85.5953C85.8999 37.558 86.1678 37.6817 86.4068 37.9263C86.6432 38.1709 86.7614 38.4339 86.7614 38.7153C86.7614 38.8915 86.743 39.0493 86.7115 39.1887C86.6774 39.3281 86.6091 39.4517 86.5093 39.5569L79.0658 50.5141C78.9423 50.6956 78.945 50.9323 79.071 51.1111L87.3209 62.9125C87.4233 63.0519 87.489 63.194 87.5231 63.3334C87.5573 63.4728 87.573 63.5964 87.573 63.7016C87.573 64.0172 87.4548 64.2986 87.2184 64.5432C86.982 64.7878 86.7115 64.9114 86.4068 64.9114H78.3015C77.8629 64.9114 77.5424 64.8062 77.3402 64.5958C77.1379 64.3854 76.9672 64.1934 76.8333 64.0172L73.1141 58.5307C72.9066 58.2309 72.4654 58.2283 72.2552 58.5229L68.2735 64.0146C68.1711 64.1908 68.0109 64.3828 67.7929 64.5932C67.5722 64.8036 67.2439 64.9088 66.8053 64.9088H58.8995Z" fill="#FFFFFF"/></svg>
