<?xml version="1.0" encoding="UTF-8"?>
<svg xmlns="http://www.w3.org/2000/svg" xml:space="preserve" version="1.1" style="shape-rendering:geometricPrecision; text-rendering:geometricPrecision; image-rendering:optimizeQuality; fill-rule:evenodd; clip-rule:evenodd"
viewBox="9153 7130 11520 6094">
 <defs>
  <style type="text/css">
   <![CDATA[
    .fil3 {fill:#FEFEFE}
    .fil1 {fill:#FEFEFE;fill-rule:nonzero}
    .fil2 {fill:black;fill-rule:nonzero}
   ]]>
  </style>
 </defs>
 <g id="layer1">
  <path class="fil1" d="M13836.04 10629.04l-1276.91 737.23 -0.28 0 -1252.77 723.29 0.07 0.12c-104.3,60.21 -212.74,104.01 -325.08,118.26 -115.64,14.67 -233.42,-1.89 -352.27,-63.54 -115.11,-59.71 -200.61,-147.94 -258.48,-251.19 -62.64,-111.74 -92.71,-240.74 -92.71,-369.53l0 -2921.27c0,-120.52 16.28,-236.33 60.05,-340.62 44.98,-107.17 118.36,-200.84 231.71,-273.29 109.03,-69.68 228.08,-99.54 346.4,-98.03 128.12,1.63 254.89,40.1 366.45,104.51l-0.07 0.11 1276.7 737.1 0.28 0 1252.98 723.42 -0.07 0.12c104.33,60.25 196.44,132.24 264.83,222.24 70.52,92.8 115.07,203.17 121.11,337.11 5.83,129.32 -27.8,247.32 -88.21,348.95 -65.28,109.81 -162.02,200.31 -273.8,264.89l0.07 0.12z"/>
  <polygon class="fil2" points="12605.7,10093.97 13619.95,9508.39 12605.7,8922.81 "/>
  <polygon class="fil2" points="11434.17,9339 10419.74,8753.32 10419.74,9924.68 "/>
  <path class="fil2" d="M10419.74 8627.27l2076.32 1198.75 0 -966.51 -8 -4.62 0.07 -0.12 -1276.7 -737.1 -0.28 0c-91.44,-52.79 -194.28,-84.31 -297.04,-85.62 -91.99,-1.17 -184.35,21.92 -268.67,75.81 -86.29,55.15 -142.29,126.78 -176.75,208.9 -35.68,85 -48.95,182.53 -48.95,285.65l0 24.86z"/>
  <path class="fil2" d="M11658.29 10767.27l827.51 477.77 2.33 -1.35 -0.07 -0.11 1276.92 -737.24 0.27 0c91.12,-52.6 169.72,-125.91 222.38,-214.49 47.06,-79.18 73.27,-170.74 68.77,-270.67 -4.63,-102.74 -38.56,-187.07 -92.24,-257.71 -55.77,-73.39 -133.56,-133.63 -222.84,-185.17l-0.27 0 -11.72 -6.76 -2071.04 1195.73z"/>
  <polygon class="fil2" points="11377.45,10731.43 11377.46,11884.94 12376.42,11308.19 "/>
  <path class="fil2" d="M11268.24 11948l-0.01 -2387.15 -848.49 489.88 0 1472.95c0,105.63 24.13,210.47 74.39,300.13 44.96,80.23 111.03,148.6 199.63,194.55 91.47,47.45 181.53,60.28 269.54,49.11 91.31,-11.58 182.4,-48.88 271.78,-100.49l0.28 0 32.88 -18.98z"/>
  <path class="fil3" d="M16197.66 10048.57c35.12,-84.47 52.67,-176.41 52.67,-275.87 0,-100.49 -17.55,-193.17 -52.67,-278.05 -35.07,-84.76 -88.02,-162.54 -158.83,-233.35l0.08 -0.08c-70.73,-70.5 -148.45,-123.32 -233.15,-158.4 -84.58,-35.03 -176.75,-52.57 -276.52,-52.57 -100.69,0 -193.55,17.54 -278.55,52.57 -85.16,35.1 -163.11,87.92 -233.82,158.4l0.07 0.08c-70.8,70.81 -123.75,148.59 -158.82,233.41 -35.11,84.93 -52.68,177.72 -52.68,278.44l0 1252.47c0,16.33 2.37,30.32 7.09,41.96 4.32,10.68 10.72,19.69 19.17,27.01 19.22,16.66 41.8,24.99 67.71,24.99 13.37,0 25.49,-2.01 36.35,-6.05 11.09,-4.11 21.55,-10.43 31.37,-18.94 17.5,-15.17 26.25,-38.16 26.25,-68.97l0 -1252.47c0,-73.29 13.19,-141.65 39.55,-204.95 26.25,-63.05 65.52,-120.66 117.77,-172.69l-0.08 -0.08c52.17,-52.16 109.94,-91.41 173.32,-117.73 63.4,-26.34 131.84,-39.51 205.3,-39.51 73.41,0 141.7,13.15 204.84,39.4 63.05,26.21 120.53,65.42 172.42,117.55 103.93,104.9 155.9,230.59 155.9,377.56 0,73.11 -13.06,141.16 -39.17,204.18 -26.17,63.16 -65.08,120.54 -116.73,172.19l-0.16 0c-51.8,51.55 -109.28,90.38 -172.42,116.38 -63.18,26.02 -131.42,39.06 -204.68,39.06l-113.05 0c-29.27,0 -51.97,8.97 -68.1,26.89 -8.87,9.85 -15.42,20.26 -19.64,31.21 -4.15,10.76 -6.23,22.73 -6.23,35.87 0,14 2.12,26.57 6.34,37.74l0.05 -0.02c4.21,11.06 10.55,21.15 19,30.23 8.04,8.63 17.38,15.07 27.98,19.28 11.31,4.49 24.85,6.74 40.6,6.74l113.05 0c99.77,0 191.95,-17.54 276.53,-52.57 84.69,-35.08 162.42,-87.9 233.14,-158.4l-0.08 -0.08c70.76,-70.75 123.7,-148.35 158.83,-232.83zm317.21 -978.29c73.96,0 133.92,59.96 133.92,133.93 0,73.96 -59.96,133.92 -133.92,133.92 -73.96,0 -133.92,-59.96 -133.92,-133.92 0,-73.97 59.96,-133.93 133.92,-133.93zm67.19 2024.31c17.5,-15.17 26.25,-38.16 26.25,-68.97l0 -1376.92c0,-16.33 -2.35,-30.33 -7.07,-41.97 -4.33,-10.67 -10.73,-19.68 -19.18,-27 -9.81,-8.51 -20.28,-14.83 -31.37,-18.95 -10.85,-4.03 -22.98,-6.05 -36.34,-6.05 -13.37,0 -25.49,2.02 -36.35,6.05 -11.09,4.12 -21.55,10.44 -31.37,18.95 -17.5,15.16 -26.25,38.15 -26.25,68.97l0 1376.92c0,16.33 2.36,30.32 7.08,41.96 4.32,10.68 10.72,19.69 19.17,27.01 19.22,16.66 41.8,24.99 67.72,24.99 13.36,0 25.48,-2.01 36.34,-6.05 11.1,-4.11 21.56,-10.43 31.37,-18.94zm772.23 -1005.67c-4.65,-10.52 -11.94,-20.76 -21.87,-30.69l-356.93 -355.06c-20.77,-20.78 -42.6,-31.17 -65.49,-31.17 -12.48,0 -24.03,2.32 -34.62,6.94 -11.2,4.89 -21.97,12.5 -32.3,22.8l0.08 0.08c-10.37,10.37 -17.99,21.19 -22.83,32.34 -4.66,10.71 -6.99,22.39 -6.99,34.95 0,12.65 2.23,24.21 6.66,34.65 4.57,10.79 11.69,21.11 21.29,30.92l0.08 -0.08 356.92 355.06 0.64 0.8c9.81,10.3 20.2,17.96 31.15,22.91 10.31,4.66 21.55,7.01 33.7,7.01 12.56,0 24.24,-2.33 34.95,-6.98 11.15,-4.85 21.97,-12.47 32.34,-22.84l0.16 0c10.11,-10.11 17.64,-20.98 22.56,-32.57 4.74,-11.14 7.1,-23.47 7.1,-36.96 0,-11.43 -2.2,-22.13 -6.6,-32.11zm902.37 903.93c-5.13,-11.1 -13.1,-21.95 -23.89,-32.57l-368.02 -372.9 -0.07 0.08c-20.78,-20.78 -42.61,-31.17 -65.49,-31.17 -13.37,0 -25.59,2.43 -36.65,7.28 -11.46,5.02 -22.32,12.83 -32.57,23.41l-0.16 0.16c-10.44,10.61 -18.11,21.6 -23.01,32.94 -4.64,10.73 -6.97,22.45 -6.97,35.11 0,11.11 2.37,21.62 7.08,31.61 5.3,11.26 13.55,22.33 24.67,33.28l366.45 371.33c11.05,9.82 22.09,17.06 33.17,21.64 10.49,4.34 21.64,6.53 33.51,6.53 12.53,0 24.26,-2.35 35.16,-7.01 11.51,-4.93 22.55,-12.51 33.06,-22.67l0.31 -0.33c20.25,-19.29 30.38,-40.92 30.38,-64.85 0,-11.21 -2.32,-21.83 -6.96,-31.87zm-1296.2 100l1272.94 -1259.49c20.14,-18.89 30.22,-40.45 30.22,-64.7 0,-12.48 -2.32,-24.03 -6.95,-34.63 -4.82,-11.04 -12.45,-21.78 -22.88,-32.21l0 -0.16c-10.14,-10.14 -21.01,-17.65 -32.53,-22.52 -11.26,-4.76 -23.77,-7.14 -37.44,-7.14 -11.54,0 -22.26,2.18 -32.16,6.5 -10.7,4.66 -21.03,11.91 -30.96,21.68l-1273.74 1260.29c-10.37,9.71 -18.02,19.85 -22.87,30.43 -4.58,10.01 -6.9,21.12 -6.9,33.37 0,12.09 2.32,23.37 6.94,33.85 4.86,11.01 12.49,21.7 22.88,32.09l-0.08 0.08c10.22,10 21.05,17.43 32.49,22.25 11.12,4.68 23.49,7.04 37.12,7.04 23.51,0 44.82,-8.91 63.92,-26.73zm2711.98 -419.08c35.13,-85.21 52.69,-178.35 52.69,-279.32 0,-100.06 -17.57,-192.53 -52.69,-277.32 -35.07,-84.63 -88,-162.38 -158.8,-233.18l0 -0.16c-70.65,-70.86 -148.53,-123.86 -233.63,-159.05 -85.05,-35.18 -177.94,-52.74 -278.67,-52.74 -100.72,0 -193.61,17.56 -278.66,52.74 -85.1,35.19 -162.98,88.19 -233.63,159.05l0 0.16c-70.8,70.8 -123.74,148.55 -158.8,233.18 -35.13,84.79 -52.7,177.26 -52.7,277.32 0,100.97 17.57,194.11 52.7,279.32 35.08,85.11 88.02,163.08 158.8,233.86l0 0.16c70.65,70.86 148.53,123.87 233.63,159.06 85.05,35.18 177.94,52.73 278.66,52.73 100.73,0 193.62,-17.55 278.67,-52.73 85.1,-35.19 162.99,-88.2 233.63,-159.06l0 -0.16c70.78,-70.78 123.72,-148.75 158.8,-233.86zm-174.77 -484.96c26.35,63.36 39.53,131.93 39.53,205.64 0,73.58 -13.18,142.2 -39.53,205.8 -26.39,63.7 -65.63,121.62 -117.72,173.71l-0.07 -0.08c-52.29,52.51 -110.04,91.89 -173.24,118.2 -63.39,26.4 -131.83,39.57 -205.3,39.57 -73.46,0 -141.9,-13.17 -205.3,-39.57 -63.19,-26.31 -120.95,-65.69 -173.23,-118.2l-0.08 0.08c-52.08,-52.09 -91.32,-110.01 -117.71,-173.71 -26.35,-63.6 -39.53,-132.22 -39.53,-205.8 0,-73.71 13.18,-142.28 39.53,-205.64 26.28,-63.18 65.57,-120.71 117.87,-172.53 52.21,-51.97 109.99,-91 173.31,-117.12 63.45,-26.17 131.83,-39.22 205.14,-39.22 73.32,0 141.7,13.06 205.14,39.22 63.32,26.12 121.1,65.15 173.32,117.12 52.29,51.82 91.59,109.35 117.87,172.53z"/>
 </g>
</svg>
