<?xml version="1.0" encoding="UTF-8"?>
<!DOCTYPE svg PUBLIC "-//W3C//DTD SVG 1.1//EN" "http://www.w3.org/Graphics/SVG/1.1/DTD/svg11.dtd">
<!-- Creator: CorelDRAW -->
<svg xmlns="http://www.w3.org/2000/svg" xml:space="preserve" version="1.1" style="shape-rendering:geometricPrecision; text-rendering:geometricPrecision; image-rendering:optimizeQuality; fill-rule:evenodd; clip-rule:evenodd"
viewBox="9248 7507 11520 6094"
 xmlns:xlink="http://www.w3.org/1999/xlink"
 xmlns:xodm="http://www.corel.com/coreldraw/odm/2003">
 <defs>
  <style type="text/css">
   <![CDATA[
    .fil2 {fill:none}
    .fil1 {fill:black}
    .fil0 {fill:black;fill-rule:nonzero}
   ]]>
  </style>
 </defs>
 <g id="圖層_x0020_1">
  <metadata id="CorelCorpID_0Corel-Layer"/>
  <polygon class="fil0" points="12588.57,10442.37 13525.23,9901.58 12588.57,9360.79 "/>
  <polygon class="fil0" points="11462.25,9740.43 10525.38,9199.54 10525.38,10281.33 "/>
  <path class="fil0" d="M10525.38 9065.42l1946.53 1123.83 0 -895.81 -5.25 -3.04 0.07 -0.12 -1206.1 -696.34 -0.3 0c-85.19,-49.19 -180.91,-78.55 -276.48,-79.77 -85.33,-1.08 -171,20.33 -249.19,70.3 -79.9,51.07 -131.77,117.42 -163.7,193.51 -33.22,79.15 -45.58,170.2 -45.58,266.59l0 20.85z"/>
  <path class="fil0" d="M11700.03 11089.75l766.67 442.64 1206.28 -696.46 0.29 0c84.85,-48.98 158.02,-117.21 207.01,-199.63 43.67,-73.45 67.99,-158.38 63.82,-251.03 -4.3,-95.2 -35.72,-173.32 -85.43,-238.74 -51.76,-68.11 -124.54,-124.35 -208.29,-172.71l-8.77 -5.06 -1941.58 1120.99z"/>
  <polygon class="fil0" points="11428.19,11067.18 11428.19,12132.13 12350.47,11599.66 "/>
  <path class="fil0" d="M11312 12199.22l-0.01 -2237.92 -786.61 454.14 0 1388.91c0,98.4 22.44,196.01 69.18,279.4 41.72,74.42 102.97,137.82 185.09,180.42 84.78,43.98 168.21,55.87 249.71,45.53 85.01,-10.78 170.02,-45.63 253.58,-93.87l0.3 0 28.76 -16.61z"/>
  <path class="fil1" d="M16088.44 10228.53c-9.36,49.02 -23.41,96.06 -42.13,141.1 -18.72,45.04 -42.21,88.26 -70.44,129.63 -27.92,40.95 -60.51,80.1 -97.73,117.45l0.08 0.08 -1.17 1.17c-37.69,37.57 -77.27,70.45 -118.71,98.61 -41.42,28.14 -84.72,51.58 -129.87,70.27 -45.11,18.69 -92.26,32.71 -141.41,42.05 -49.13,9.34 -100.27,14.02 -153.43,14.02l-120.27 0c-8.44,0 -16.34,-0.61 -23.63,-1.82 -7.32,-1.21 -14.05,-3.05 -20.18,-5.47 -5.75,-2.29 -11.17,-5.19 -16.22,-8.67 -5.05,-3.48 -9.78,-7.58 -14.14,-12.26 -4.55,-4.89 -8.56,-10.07 -11.98,-15.53 -3.15,-5 -5.81,-10.22 -7.98,-15.64l-0.07 0.03 -0.58 -1.54c-2.28,-6.04 -4,-12.46 -5.14,-19.26 -1.14,-6.79 -1.71,-13.95 -1.71,-21.47 0,-7.06 0.57,-13.85 1.69,-20.3 1.11,-6.46 2.81,-12.62 5.06,-18.45 2.28,-5.92 5.19,-11.71 8.73,-17.32 3.54,-5.62 7.7,-11.1 12.47,-16.39 8.75,-9.72 19.29,-17.02 31.6,-21.88 12.27,-4.85 26.31,-7.28 42.08,-7.28l120.27 0c38.86,0 76.38,-3.46 112.56,-10.36 36.21,-6.91 71.08,-17.28 104.59,-31.07 33.45,-13.77 65.43,-30.96 95.91,-51.54 30.52,-20.6 59.52,-44.59 87,-71.93l0.49 -0.49 0.16 0c27.21,-27.26 51.08,-56.03 71.58,-86.28 20.64,-30.43 37.9,-62.4 51.77,-95.88 13.84,-33.41 24.24,-68.18 31.16,-104.29 6.93,-36.09 10.39,-73.54 10.39,-112.33 0,-77.98 -13.78,-150.3 -41.34,-217.02 -27.56,-66.72 -68.91,-127.88 -124.04,-183.53 -27.54,-27.66 -56.56,-51.9 -87.06,-72.69 -30.47,-20.77 -62.43,-38.12 -95.86,-52.01 -33.48,-13.93 -68.35,-24.38 -104.59,-31.35 -36.2,-6.96 -73.78,-10.45 -112.72,-10.45 -38.97,0 -76.62,3.5 -112.91,10.48 -36.3,6.99 -71.27,17.47 -104.88,31.43 -33.62,13.96 -65.76,31.35 -96.38,52.16 -30.2,20.51 -58.99,44.38 -86.33,71.58l0.09 0.09 -1.17 1.16c-27.7,27.58 -51.98,56.67 -72.8,87.19 -20.82,30.55 -38.21,62.56 -52.14,96.01 -13.98,33.56 -24.47,68.48 -31.46,104.71 -6.99,36.24 -10.49,73.82 -10.49,112.71l0 1332.56c0,16.59 -2.37,31.1 -7.09,43.51 -4.75,12.49 -11.9,22.86 -21.41,31.11 -5.3,4.59 -10.78,8.6 -16.41,12 -5.65,3.41 -11.48,6.24 -17.48,8.46 -5.87,2.18 -12.09,3.82 -18.63,4.9 -6.55,1.1 -13.43,1.64 -20.61,1.64 -13.96,0 -27.06,-2.25 -39.25,-6.75 -12.19,-4.5 -23.49,-11.26 -33.87,-20.25 -4.59,-3.97 -8.63,-8.42 -12.1,-13.31 -3.48,-4.9 -6.4,-10.26 -8.74,-16.04 -2.55,-6.29 -4.48,-13.23 -5.75,-20.8 -1.27,-7.54 -1.91,-15.7 -1.91,-24.47l0 -1332.56c0,-53.67 4.68,-105.25 14.04,-154.72 9.36,-49.46 23.42,-96.85 42.14,-142.14 18.7,-45.24 42.17,-88.59 70.39,-130.06 27.93,-41.04 60.53,-80.27 97.78,-117.65l-0.09 -0.08 1.17 -1.17c37.69,-37.56 77.32,-70.44 118.88,-98.59 41.55,-28.15 85.04,-51.59 130.43,-70.29 45.34,-18.68 92.78,-32.71 142.28,-42.05 49.48,-9.34 101.07,-14.02 154.7,-14.02 53.16,0 104.3,4.68 153.43,14.02 49.15,9.34 96.29,23.37 141.4,42.05 45.15,18.7 88.45,42.13 129.88,70.28 41.44,28.15 81.02,61.03 118.71,98.6l1.17 1.17 -0.09 0.08c37.26,37.39 69.86,76.6 97.79,117.64 28.22,41.46 51.69,84.8 70.39,130.01 37.44,90.51 56.17,189.33 56.17,296.45 0,53 -4.68,104.03 -14.04,153.04zm293.85 -902.02c39.79,0 75.83,16.14 101.91,42.22 26.08,26.08 42.22,62.12 42.22,101.91 0,39.8 -16.14,75.84 -42.22,101.92 -26.08,26.07 -62.12,42.21 -101.91,42.21 -39.79,0 -75.84,-16.14 -101.92,-42.21 -26.07,-26.08 -42.21,-62.12 -42.21,-101.92 0,-39.79 16.14,-75.83 42.21,-101.91 26.08,-26.08 62.13,-42.22 101.92,-42.22zm93.97 2125.52c-4.75,12.49 -11.89,22.86 -21.41,31.11 -5.3,4.59 -10.77,8.6 -16.41,12 -5.64,3.41 -11.48,6.24 -17.47,8.46 -5.88,2.18 -12.09,3.82 -18.64,4.9 -6.54,1.1 -13.42,1.64 -20.6,1.64 -13.97,0 -27.07,-2.25 -39.26,-6.75 -12.19,-4.5 -23.48,-11.25 -33.86,-20.25 -4.59,-3.97 -8.63,-8.42 -12.11,-13.31 -3.48,-4.9 -6.39,-10.26 -8.74,-16.04 -2.55,-6.29 -4.47,-13.23 -5.74,-20.8 -1.27,-7.54 -1.91,-15.7 -1.91,-24.47l0 -1464.96c0,-16.59 2.36,-31.1 7.09,-43.52 4.74,-12.48 11.89,-22.85 21.41,-31.1 5.3,-4.6 10.77,-8.6 16.41,-12.01 5.63,-3.4 11.46,-6.22 17.47,-8.45 5.87,-2.18 12.09,-3.82 18.63,-4.91 6.55,-1.09 13.42,-1.64 20.61,-1.64 7.19,0 14.06,0.55 20.61,1.64 6.54,1.09 12.76,2.73 18.63,4.91 6.01,2.23 11.84,5.05 17.47,8.45 5.64,3.41 11.11,7.41 16.41,12.01 4.6,3.98 8.64,8.43 12.11,13.32 3.48,4.89 6.4,10.25 8.74,16.03 5.1,12.58 7.65,27.68 7.65,45.27l0 1464.96c0,16.59 -2.36,31.1 -7.09,43.51zm790.93 -1057.62c3.94,5.53 7.18,11.16 9.69,16.86 2.39,5.4 4.18,11.02 5.38,16.84 1.19,5.81 1.79,11.81 1.79,17.98 0,7.28 -0.64,14.25 -1.92,20.91 -1.27,6.66 -3.21,13.02 -5.77,19.06 -2.65,6.26 -6.03,12.34 -10.09,18.21 -4.06,5.86 -8.82,11.52 -14.26,16.96l-0.49 0.48 -0.17 0c-5.41,5.37 -10.95,10.06 -16.59,14.04 -5.83,4.11 -11.79,7.49 -17.84,10.12 -5.82,2.53 -11.89,4.43 -18.18,5.68 -6.3,1.26 -12.85,1.89 -19.65,1.89 -6.55,0 -12.88,-0.64 -18.97,-1.9 -6.11,-1.27 -11.97,-3.18 -17.56,-5.7 -5.93,-2.68 -11.7,-6.1 -17.31,-10.22 -5.6,-4.12 -11.06,-8.97 -16.35,-14.53l-0.72 -0.88 -378.52 -376.55 -0.09 0.1 -1.16 -1.18c-5.19,-5.3 -9.7,-10.74 -13.53,-16.29 -3.82,-5.56 -6.99,-11.28 -9.47,-17.13 -2.4,-5.67 -4.21,-11.64 -5.41,-17.9 -1.2,-6.23 -1.8,-12.77 -1.8,-19.59 0,-6.8 0.63,-13.35 1.89,-19.66 1.25,-6.29 3.15,-12.36 5.68,-18.18 2.64,-6.06 6.01,-12.02 10.12,-17.83 3.82,-5.4 8.27,-10.72 13.36,-15.92l-0.09 -0.09 1.17 -1.16c5.56,-5.55 11.25,-10.39 17.04,-14.47 5.81,-4.1 11.75,-7.49 17.82,-10.13 5.76,-2.51 11.77,-4.4 18.01,-5.65 6.23,-1.25 12.73,-1.88 19.48,-1.88 12.42,0 24.56,2.82 36.39,8.45 11.78,5.61 23.27,14.02 34.46,25.2l379.74 377.76c5.34,5.34 9.99,10.78 13.92,16.3zm959.14 960.76c4.29,5.85 7.84,11.8 10.61,17.8 2.51,5.45 4.42,11.07 5.67,16.83 1.26,5.76 1.89,11.69 1.89,17.76 0,12.97 -2.75,25.33 -8.24,37.05 -5.47,11.68 -13.67,22.74 -24.58,33.14l-0.31 0.31c-5.68,5.5 -11.49,10.29 -17.43,14.36 -5.95,4.08 -12.05,7.46 -18.27,10.12 -5.91,2.53 -12.05,4.44 -18.4,5.7 -6.32,1.26 -12.88,1.9 -19.64,1.9 -6.42,0 -12.65,-0.6 -18.69,-1.77 -6.02,-1.18 -11.89,-2.95 -17.59,-5.31 -5.99,-2.47 -11.97,-5.67 -17.93,-9.56 -5.96,-3.89 -11.91,-8.49 -17.84,-13.76l-389.95 -395.13c-5.96,-5.88 -11.17,-11.8 -15.6,-17.77 -4.44,-5.99 -8.11,-12.03 -10.97,-18.1 -2.55,-5.42 -4.47,-10.99 -5.76,-16.71 -1.28,-5.73 -1.93,-11.6 -1.93,-17.62 0,-6.85 0.63,-13.44 1.89,-19.76 1.25,-6.32 3.14,-12.41 5.66,-18.25 2.66,-6.13 6.07,-12.18 10.21,-18.11 4.13,-5.92 9.01,-11.74 14.61,-17.43l0.18 -0.19c5.51,-5.68 11.21,-10.64 17.05,-14.84 5.87,-4.22 11.91,-7.7 18.11,-10.41 6.01,-2.63 12.32,-4.61 18.92,-5.92 6.6,-1.31 13.51,-1.96 20.73,-1.96 12.41,0 24.54,2.82 36.37,8.45 11.38,5.41 22.48,13.42 33.29,24.03l0.1 -0.09 392.7 397.91c5.81,5.72 10.87,11.5 15.14,17.33zm-14.5 -1213.95l-1354.34 1340.03c-10.31,9.62 -21.22,16.84 -32.73,21.65 -11.54,4.83 -23.68,7.24 -36.4,7.24 -7.33,0 -14.34,-0.64 -21.02,-1.9 -6.69,-1.27 -13.07,-3.18 -19.1,-5.72 -6.19,-2.61 -12.21,-5.92 -18.05,-9.92 -5.84,-4.01 -11.53,-8.71 -17.03,-14.1l-1.19 -1.17 0.1 -0.09c-5.1,-5.21 -9.57,-10.51 -13.4,-15.87 -4.12,-5.77 -7.5,-11.65 -10.13,-17.61 -2.5,-5.67 -4.39,-11.58 -5.64,-17.7 -1.25,-6.12 -1.88,-12.45 -1.88,-18.97 0,-6.61 0.63,-12.93 1.88,-18.98 1.25,-6.03 3.13,-11.77 5.62,-17.21 2.62,-5.74 6.01,-11.36 10.13,-16.83 4.1,-5.45 8.95,-10.8 14.52,-16.03l1355.19 -1340.87c5.35,-5.26 10.83,-9.86 16.41,-13.77 5.57,-3.9 11.26,-7.12 17.04,-9.64 5.37,-2.34 10.98,-4.11 16.81,-5.29 5.82,-1.18 11.84,-1.77 18.05,-1.77 7.37,0 14.45,0.65 21.2,1.93 6.73,1.29 13.18,3.23 19.27,5.8 6.25,2.64 12.33,6 18.18,10.06 5.85,4.04 11.51,8.8 16.97,14.25l0.48 0.49 0 0.17c5.41,5.45 10.11,11 14.1,16.62 4.12,5.79 7.49,11.69 10.1,17.67 5.02,11.49 7.53,24 7.53,37.5 0,13.13 -2.73,25.55 -8.2,37.25 -5.44,11.66 -13.61,22.6 -24.47,32.78zm1573.59 750.96c-9.36,49.63 -23.42,97.18 -42.15,142.62 -18.7,45.38 -42.17,88.86 -70.4,130.43 -28.09,41.38 -60.92,80.87 -98.42,118.44l0 0.16 -0.49 0.49c-37.64,37.76 -77.23,70.77 -118.73,99.03 -41.51,28.26 -84.98,51.79 -130.37,70.55 -45.36,18.76 -92.8,32.83 -142.31,42.19 -49.52,9.37 -101.13,14.05 -154.8,14.05 -53.67,0 -105.28,-4.68 -154.8,-14.05 -49.5,-9.36 -96.95,-23.43 -142.3,-42.19 -45.39,-18.76 -88.84,-42.28 -130.36,-70.54 -41.5,-28.25 -81.09,-61.27 -118.75,-99.04l-0.48 -0.49 0 -0.16c-37.51,-37.57 -70.33,-77.05 -98.43,-118.44 -28.22,-41.56 -51.7,-85.05 -70.4,-130.43 -18.73,-45.44 -32.78,-92.99 -42.15,-142.62 -9.36,-49.64 -14.05,-101.37 -14.05,-155.19 0,-53.32 4.69,-104.64 14.05,-153.92 9.37,-49.27 23.42,-96.53 42.15,-141.75 18.7,-45.14 42.17,-88.45 70.39,-129.88 28.09,-41.25 60.92,-80.69 98.44,-118.27l0 -0.16 0.48 -0.49c37.65,-37.76 77.25,-70.78 118.75,-99.04 41.52,-28.26 84.97,-51.78 130.36,-70.54 45.35,-18.76 92.8,-32.82 142.3,-42.19 49.52,-9.36 101.13,-14.05 154.8,-14.05 53.67,0 105.28,4.69 154.8,14.05 49.51,9.37 96.95,23.43 142.31,42.19 45.39,18.77 88.85,42.29 130.37,70.56 41.5,28.25 81.09,61.27 118.73,99.02l0.49 0.49 0 0.16c37.52,37.58 70.34,77.02 98.44,118.27 28.21,41.43 51.68,84.74 70.38,129.88 18.73,45.22 32.79,92.48 42.15,141.75 9.36,49.28 14.05,100.6 14.05,153.92 0,53.82 -4.69,105.55 -14.05,155.19zm-199.68 -268.41c-6.99,-36.35 -17.48,-71.34 -31.44,-104.93 -13.94,-33.51 -31.34,-65.53 -52.18,-96.04 -20.84,-30.5 -45.14,-59.51 -72.87,-86.99 -27.68,-27.55 -56.86,-51.69 -87.51,-72.4 -30.67,-20.72 -62.79,-38.01 -96.36,-51.86 -33.62,-13.86 -68.59,-24.27 -104.87,-31.2 -36.27,-6.93 -73.86,-10.4 -112.76,-10.4 -38.89,0 -76.49,3.47 -112.75,10.4 -36.29,6.93 -71.26,17.33 -104.89,31.2 -33.55,13.85 -65.69,31.14 -96.35,51.86 -30.65,20.71 -59.83,44.85 -87.5,72.4 -27.74,27.48 -52.04,56.49 -72.88,86.99 -20.84,30.51 -38.24,62.53 -52.17,96.04 -13.97,33.59 -24.46,68.58 -31.44,104.93 -6.99,36.36 -10.49,74.11 -10.49,113.22 0,39.04 3.5,76.78 10.49,113.16 6.98,36.4 17.47,71.48 31.44,105.18 13.99,33.79 31.4,66.05 52.22,96.76 20.51,30.28 44.36,59.08 71.53,86.38l0.09 -0.08 1.13 1.14c27.72,27.84 56.91,52.22 87.53,73.11 30.63,20.9 62.72,38.33 96.24,52.29 33.6,13.99 68.56,24.48 104.84,31.47 36.31,7 73.97,10.49 112.96,10.49 38.99,0 76.65,-3.49 112.96,-10.49 36.28,-6.99 71.24,-17.48 104.83,-31.47 33.53,-13.95 65.62,-31.39 96.26,-52.29 30.62,-20.89 59.8,-45.27 87.53,-73.11l1.16 -1.17 0.08 0.08c27.16,-27.29 51,-56.09 71.51,-86.35 20.81,-30.71 38.22,-62.97 52.22,-96.76 13.96,-33.7 24.45,-68.78 31.44,-105.18 6.99,-36.38 10.48,-74.12 10.48,-113.16 0,-39.11 -3.49,-76.86 -10.48,-113.22z"/>
 </g>
</svg>
